#!OML:ASF X:\für Bonn\!DataBase\2005_08_10_Bjorn_Final\c3d\bjorn.ASF
:FULLY-SPECIFIED
:DEGREES
211
root -5.7746 18.6067 -29.729 43.4683 -71.5678 -40.5598
lowerback -0.532708 5.49816 6.63544
upperback 6.32403 6.87157 1.26166
thorax 7.58748 3.68162 -1.82801
lowerneck -0.320873 1.8467 6.18606
upperneck 2.23446 2.50062 -5.17858
head 0.917662 1.25305 -2.70265
rclavicle 8.8658e-014 6.36111e-015
rhumerus -32.0229 24.4066 -108.129
rradius 88.5732
rwrist 6.19782
rhand -25.4954 28.4878
rfingers 7.12502
rthumb 1.03309 -1.48942
lclavicle 8.8658e-014 6.36111e-015
lhumerus -60.9636 -23.3087 100.219
lradius 88.6404
lwrist -6.05952
lhand -45.7523 -21.7204
lfingers 7.12502
lthumb -18.5074 7.41914
rfemur 18.7582 -5.49042 17.3208
rtibia 26.0907
rfoot 13.1462 12.4747
rtoes -34.3801
lfemur -36.9794 10.9104 -28.5473
ltibia 38.6831
lfoot -3.91298 -7.0344
ltoes 8.96104
212
root -6.0882 18.5851 -29.6776 42.2929 -71.0935 -39.38
lowerback -0.868363 5.48627 6.60171
upperback 6.32881 6.84804 1.08073
thorax 7.80434 3.6799 -1.96459
lowerneck -0.232411 1.8388 6.17513
upperneck 2.31039 2.49128 -4.93745
head 0.921128 1.25165 -2.62008
rclavicle 5.84427e-014 -6.36111e-015
rhumerus -32.4531 24.4504 -108.463
rradius 88.3794
rwrist 7.35
rhand -24.9276 28.4606
rfingers 7.12502
rthumb 1.58152 -1.51329
lclavicle 5.84427e-014 -6.36111e-015
lhumerus -60.7081 -23.4137 99.9349
lradius 88.7618
lwrist -5.89796
lhand -46.4513 -22.4126
lfingers 7.12502
lthumb -19.1797 6.66168
rfemur 18.2989 -5.54648 17.0464
rtibia 28.3125
rfoot 13.1514 12.4788
rtoes -34.3079
lfemur -36.4408 10.8279 -28.8193
ltibia 38.2069
lfoot -3.7895 -6.98606
ltoes 12.3097
213
root -6.40072 18.549 -29.6239 41.0458 -70.6129 -38.1728
lowerback -1.1707 5.46163 6.60654
upperback 6.37263 6.80825 0.865913
thorax 8.05328 3.67488 -2.16038
lowerneck -0.241585 1.83887 6.12456
upperneck 2.36599 2.4855 -4.62416
head 0.933411 1.25124 -2.50549
rclavicle -1.27222e-014 -1.03368e-014
rhumerus -32.753 24.3225 -108.726
rradius 88.105
rwrist 8.24483
rhand -24.395 28.7181
rfingers 7.12502
rthumb 2.09589 -1.25139
lclavicle -1.27222e-014 -1.03368e-014
lhumerus -60.3595 -23.5165 99.6376
lradius 88.8542
lwrist -5.79227
lhand -47.122 -23.4558
lfingers 7.12502
lthumb -19.8246 5.55319
rfemur 17.8284 -5.73142 16.6499
rtibia 30.6766
rfoot 12.9892 12.5648
rtoes -34.3058
lfemur -35.841 10.606 -29.0423
ltibia 38.1268
lfoot -4.13794 -6.68125
ltoes 15.5187
214
root -6.71782 18.5004 -29.5734 39.3277 -69.982 -36.5214
lowerback -1.49524 5.35807 6.49296
upperback 6.45756 6.66375 0.685242
thorax 8.32902 3.6109 -2.26506
lowerneck -0.296696 1.84361 6.04197
upperneck 2.41056 2.48419 -4.34995
head 0.950604 1.252 -2.39817
rclavicle 4.73108e-014 1.11319e-014
rhumerus -33.1601 24.0792 -108.927
rradius 87.8786
rwrist 8.67075
rhand -23.8416 29.3407
rfingers 7.12502
rthumb 2.63033 -0.622832
lclavicle 4.73108e-014 1.11319e-014
lhumerus -59.8772 -23.6203 99.4212
lradius 89.0195
lwrist -5.66771
lhand -47.6728 -24.3858
lfingers 7.12502
lthumb -20.354 4.56759
rfemur 17.3956 -6.09196 16.2254
rtibia 33.1795
rfoot 12.439 12.6851
rtoes -34.3703
lfemur -35.1611 10.1918 -29.2671
ltibia 38.4116
lfoot -4.76397 -6.22781
ltoes 19.4301
215
root -7.02927 18.4427 -29.5169 37.7582 -69.4112 -35.0382
lowerback -1.74651 5.27056 6.43528
upperback 6.56057 6.54434 0.478777
thorax 8.59594 3.56391 -2.43209
lowerneck -0.42696 1.85303 5.89544
upperneck 2.40862 2.48408 -4.03097
head 0.964173 1.25245 -2.26421
rclavicle 6.95746e-014 -1.74931e-014
rhumerus -33.4688 23.7215 -108.975
rradius 87.5617
rwrist 8.48187
rhand -23.2315 30.2999
rfingers 7.12502
rthumb 3.21952 0.344429
lclavicle 6.95746e-014 -1.74931e-014
lhumerus -59.3498 -23.7783 99.229
lradius 89.3763
lwrist -5.46925
lhand -47.9964 -25.1324
lfingers 7.12502
lthumb -20.665 3.78747
rfemur 16.8783 -6.41688 15.7106
rtibia 35.8452
rfoot 11.5752 12.8103
rtoes -34.8874
lfemur -34.4416 9.62296 -29.468
ltibia 39.0092
lfoot -5.79193 -5.39992
ltoes 22.7862
216
root -7.33467 18.3756 -29.4576 36.1344 -68.8299 -33.5552
lowerback -1.87512 5.16826 6.38638
upperback 6.68584 6.41195 0.272115
thorax 8.81547 3.51094 -2.61798
lowerneck -0.719685 1.86942 5.72302
upperneck 2.47438 2.48635 -3.72283
head 1.02723 1.25307 -2.12876
rclavicle 4.13472e-014 -1.66979e-014
rhumerus -33.846 23.1994 -109.06
rradius 87.1718
rwrist 8.0557
rhand -22.6528 31.062
rfingers 7.12502
rthumb 3.7784 1.11572
lclavicle 4.13472e-014 -1.66979e-014
lhumerus -58.6309 -23.9721 99.0434
lradius 89.6782
lwrist -5.12638
lhand -48.0412 -25.6825
lfingers 7.12502
lthumb -20.708 3.23264
rfemur 16.2997 -6.70221 15.1398
rtibia 38.6721
rfoot 10.628 12.7931
rtoes -35.1779
lfemur -33.6278 8.64769 -29.5769
ltibia 39.866
lfoot -7.11947 -4.18715
ltoes 25.9792
217
root -7.63237 18.2995 -29.394 34.4494 -68.3028 -32.1582
lowerback -1.75837 5.06156 6.37971
upperback 6.85626 6.2861 0.0380844
thorax 8.95035 3.46474 -2.87646
lowerneck -1.15616 1.88912 5.57371
upperneck 2.60032 2.48662 -3.43677
head 1.13502 1.2525 -2.00476
rclavicle -6.99722e-014 4.05521e-014
rhumerus -34.1265 22.5948 -108.974
rradius 86.6785
rwrist 7.41774
rhand -21.9919 31.4165
rfingers 7.12502
rthumb 4.41659 1.48254
lclavicle -6.99722e-014 4.05521e-014
lhumerus -57.8833 -24.1369 98.8046
lradius 90.0637
lwrist -4.76276
lhand -47.7444 -25.7909
lfingers 7.12502
lthumb -20.4228 3.15514
rfemur 15.7209 -6.95875 14.4084
rtibia 41.6019
rfoot 9.79028 12.6522
rtoes -35.4988
lfemur -32.61 7.42181 -29.6377
ltibia 40.8505
lfoot -8.63602 -2.86296
ltoes 28.6736
218
root -7.92236 18.2167 -29.3307 32.7846 -67.7746 -30.772
lowerback -1.6145 4.952 6.35685
upperback 7.04976 6.15784 -0.199176
thorax 9.0924 3.41712 -3.13179
lowerneck -1.51296 1.90841 5.41873
upperneck 2.59337 2.48988 -3.15785
head 1.18683 1.25362 -1.8832
rclavicle -4.77083e-015 -1.43125e-014
rhumerus -34.2932 21.8664 -108.882
rradius 86.0008
rwrist 6.87489
rhand -21.5485 31.5996
rfingers 7.12502
rthumb 4.84473 1.67499
lclavicle -4.77083e-015 -1.43125e-014
lhumerus -57.0581 -24.3433 98.531
lradius 90.442
lwrist -4.38984
lhand -47.3342 -25.5212
lfingers 7.12502
lthumb -20.0286 3.46654
rfemur 14.9774 -7.28382 13.5481
rtibia 44.669
rfoot 9.09802 12.3501
rtoes -35.6554
lfemur -31.6452 5.94893 -29.6884
ltibia 42.005
lfoot -10.2808 -1.62354
ltoes 30.8414
219
root -8.20748 18.151 -29.2579 31.2699 -67.2135 -29.409
lowerback -1.54942 4.8181 6.32001
upperback 7.20436 5.99483 -0.432428
thorax 9.23067 3.35114 -3.3755
lowerneck -1.81043 1.93643 5.29515
upperneck 2.54982 2.50831 -2.91853
head 1.21863 1.26261 -1.78083
rclavicle 2.50469e-014 1.82882e-014
rhumerus -34.6005 21.0234 -108.765
rradius 85.2638
rwrist 6.338
rhand -21.2865 31.9802
rfingers 7.12502
rthumb 5.09776 2.06154
lclavicle 2.50469e-014 1.82882e-014
lhumerus -55.9882 -24.572 98.205
lradius 90.6515
lwrist -3.88957
lhand -46.6792 -24.905
lfingers 7.12502
lthumb -19.3989 4.14735
rfemur 13.9886 -7.68634 12.6208
rtibia 47.7559
rfoot 8.56584 12.0283
rtoes -35.8344
lfemur -30.7823 4.40393 -29.7784
ltibia 43.2081
lfoot -12.0052 -0.67635
ltoes 32.1007
220
root -8.47838 18.0571 -29.195 29.7458 -66.6467 -28.0019
lowerback -1.45649 4.68569 6.27499
upperback 7.36349 5.83748 -0.688909
thorax 9.35936 3.28865 -3.64181
lowerneck -2.15558 1.96436 5.20999
upperneck 2.47928 2.52297 -2.67085
head 1.25046 1.27002 -1.68276
rclavicle 9.26337e-014 -2.22639e-014
rhumerus -34.7761 20.0543 -108.56
rradius 84.3917
rwrist 5.84208
rhand -21.0564 31.6229
rfingers 7.12502
rthumb 5.31989 1.7097
lclavicle 9.26337e-014 -2.22639e-014
lhumerus -54.9448 -24.6163 98.0202
lradius 90.8025
lwrist -3.75344
lhand -45.8733 -24.2672
lfingers 7.12502
lthumb -18.6238 4.86132
rfemur 12.8399 -8.15435 11.5788
rtibia 50.933
rfoot 8.2269 11.8075
rtoes -35.7531
lfemur -30.1141 2.98493 -30.0109
ltibia 44.5246
lfoot -13.6504 0.182622
ltoes 31.9099
221
root -8.74382 17.9634 -29.133 28.2885 -66.1017 -26.645
lowerback -1.34697 4.54093 6.19878
upperback 7.52267 5.66584 -0.941941
thorax 9.47136 3.21659 -3.89132
lowerneck -2.54422 2.00387 5.2168
upperneck 2.43177 2.55092 -2.52646
head 1.30157 1.28369 -1.63425
rclavicle 9.06458e-014 -1.27222e-014
rhumerus -35.0684 18.9513 -108.444
rradius 83.4272
rwrist 5.44141
rhand -20.9761 30.8626
rfingers 7.12502
rthumb 5.39742 0.951309
lclavicle 9.06458e-014 -1.27222e-014
lhumerus -53.7639 -24.8072 97.6943
lradius 90.9386
lwrist -3.39559
lhand -45.1263 -23.6143
lfingers 7.12502
lthumb -17.9052 5.58146
rfemur 11.5627 -8.60538 10.4791
rtibia 54.0907
rfoot 7.874 11.7534
rtoes -35.6655
lfemur -29.522 1.85717 -30.3379
ltibia 45.8298
lfoot -15.184 0.895569
ltoes 30.7614
